<svg width="41" height="38" viewBox="0 0 41 38" fill="none" xmlns="http://www.w3.org/2000/svg">
<path d="M28.6252 0.818176C21.8409 0.818176 16.3413 4.87175 16.3413 9.87213C16.3413 12.8511 18.302 15.4858 21.3145 17.1358C21.0199 18.6402 20.0816 20.4125 18.7697 21.6344C21.9728 21.4117 24.792 20.5563 26.638 18.7971C27.2864 18.875 27.947 18.9261 28.6252 18.9261C35.4095 18.9261 40.9092 14.8725 40.9092 9.87213C40.9091 4.87181 35.4094 0.818176 28.6252 0.818176ZM22.8669 11.6597C21.8068 11.6597 20.9475 10.8594 20.9475 9.87207C20.9475 8.88484 21.8068 8.08447 22.8669 8.08447C23.9269 8.08447 24.7863 8.88484 24.7863 9.87207C24.7863 10.8594 23.9269 11.6597 22.8669 11.6597ZM28.6252 11.6597C27.5651 11.6597 26.7057 10.8594 26.7057 9.87207C26.7057 8.88484 27.5651 8.08447 28.6252 8.08447C29.6853 8.08447 30.5446 8.88484 30.5446 9.87207C30.5446 10.8594 29.6852 11.6597 28.6252 11.6597ZM34.3834 11.6597C33.3233 11.6597 32.464 10.8594 32.464 9.87207C32.464 8.88484 33.3234 8.08447 34.3834 8.08447C35.4436 8.08447 36.3029 8.88484 36.3029 9.87207C36.3029 10.8594 35.4436 11.6597 34.3834 11.6597ZM26.241 30.7065C22.3463 27.7916 21.2572 29.2245 19.49 30.87C18.2563 32.0194 15.1342 29.6192 12.4384 27.1085C9.74251 24.5975 7.16585 21.6904 8.39944 20.5413C10.1667 18.8957 11.7049 17.8808 8.57395 14.2548C5.44408 10.6273 3.35768 13.4123 1.64586 15.0066C-0.330415 16.8465 1.54174 23.703 8.81807 30.4806C16.0954 37.2571 23.4577 38.9995 25.4329 37.1604C27.1444 35.5658 30.1357 33.623 26.241 30.7065ZM5.77062 16.2214C5.71807 16.2415 5.64095 16.2709 5.54284 16.3082C5.35716 16.3745 5.13513 16.4494 4.88801 16.5496C4.77271 16.6013 4.64343 16.6573 4.52552 16.7263C4.40324 16.7943 4.28173 16.8715 4.17219 16.9668C4.05252 17.057 3.95951 17.1723 3.85187 17.2932C3.77187 17.4264 3.6686 17.5626 3.61285 17.7262C3.53187 17.881 3.50285 18.0594 3.45448 18.2349C3.41723 18.413 3.41075 18.598 3.38703 18.7788C3.38461 19.1441 3.39984 19.4949 3.45036 19.7939C3.47677 20.0979 3.55964 20.3547 3.59232 20.5327C3.63239 20.7112 3.6552 20.8132 3.6552 20.8132C3.6552 20.8132 3.59631 20.7245 3.49324 20.5692C3.39553 20.4092 3.22964 20.2037 3.08402 19.9114C2.91618 19.6273 2.75964 19.2777 2.61069 18.8843C2.55768 18.6814 2.48579 18.4709 2.44599 18.2453C2.41795 18.0172 2.37161 17.782 2.39023 17.5344C2.38219 17.2871 2.43651 17.0373 2.48585 16.7848C2.56435 16.5401 2.64795 16.2922 2.77605 16.0716C2.89304 15.8462 3.04036 15.6421 3.18755 15.4642C3.33566 15.2808 3.48847 15.1307 3.63252 14.991C3.9199 14.7277 4.16945 14.5353 4.31481 14.4172C4.39801 14.3523 4.43206 14.3172 4.46918 14.2864C4.50199 14.2578 4.51951 14.2425 4.51951 14.2425L5.85513 16.188C5.85533 16.188 5.82585 16.1996 5.77062 16.2214ZM25.8155 34.7026C25.6844 34.8545 25.4789 35.0895 25.2003 35.3558C25.0518 35.4869 24.8986 35.629 24.7078 35.7632C24.5293 35.9022 24.3121 36.0294 24.091 36.1488C23.863 36.2655 23.6205 36.3656 23.3643 36.44C23.1108 36.512 22.8476 36.57 22.5893 36.5896L22.205 36.6152L21.8322 36.5965C21.5869 36.5935 21.3584 36.5326 21.1383 36.4985C20.9188 36.4606 20.7198 36.3846 20.5292 36.3338C20.3386 36.2859 20.1677 36.1983 20.0096 36.1401C19.6894 36.0217 19.4599 35.8848 19.2869 35.8002C19.117 35.7129 19.02 35.6631 19.02 35.6631C19.02 35.6631 19.1295 35.6788 19.3211 35.7061C19.5115 35.7299 19.7895 35.7859 20.1114 35.792C20.2735 35.7951 20.4397 35.8214 20.624 35.8055C20.8058 35.7923 20.9955 35.8009 21.1853 35.7693C21.3738 35.7341 21.5694 35.7241 21.7509 35.6602L22.0236 35.5824L22.2765 35.4723C22.9444 35.171 23.3077 34.6403 23.5183 34.1973C23.6225 33.9688 23.6971 33.767 23.7534 33.6091C23.8147 33.443 23.8497 33.3481 23.8497 33.3481L26.0131 34.4763C26.0129 34.4763 25.9411 34.5588 25.8155 34.7026Z" fill="#F2F2F2"/>
</svg>
